<!-- Generated by IcoMoon.io -->
<svg version="1.1" xmlns="http://www.w3.org/2000/svg" width="35" height="32" viewBox="0 0 35 32">
<path fill="#fafafa" d="M6.855 26.756c6.19 4.005 16.23 4.005 22.42 0s6.19-10.497 0-14.501c-6.19-4.004-16.23-4.005-22.42 0s-6.192 10.497 0 14.501z"></path>
<path fill="#02897a" d="M31.061 11.962c0.034-0.465 0.361-1.257 0.845-1.819s1.258-0.837 1.736-0.609c0.445 0.212 0.347 0.866-0.24 1.252s-1.461 0.861-1.761 1.593l-0.58 0.878v-1.294z"></path>
<path fill="#000" opacity="0.2" d="M31.061 11.962c0.034-0.465 0.361-1.257 0.845-1.819s1.258-0.837 1.736-0.609c0.445 0.212 0.347 0.866-0.24 1.252s-1.461 0.861-1.761 1.593l-0.58 0.878v-1.294z"></path>
<path fill="#02897a" d="M31.127 14.048c0.085-0.248 0.457-0.709 0.991-0.934s0.938-0.428 1.132-0.791-0.144-0.721-0.684-0.695c-0.54 0.026-1.439 0.645-1.502 1.629l0.063 0.792z"></path>
<path fill="#02897a" d="M3.244 16.41c-0.023-0.657-0.156-1.304-0.393-1.908-0.398-1.033-1.203-1.579-1.631-1.654s-0.872 0.496-0.326 1.174c0.546 0.678 1.592 1.586 1.893 2.96l0.491 0.938-0.033-1.51z"></path>
<path fill="#000" opacity="0.2" d="M3.244 16.41c-0.023-0.657-0.156-1.304-0.393-1.908-0.398-1.033-1.203-1.579-1.631-1.654s-0.872 0.496-0.326 1.174c0.546 0.678 1.592 1.586 1.893 2.96l0.491 0.938-0.033-1.51z"></path>
<path fill="#02897a" d="M3.177 18.882c-0.122-0.533-0.439-1.053-1.074-1.576s-1.483-0.972-1.414-1.505c0.069-0.533 0.713-0.496 1.184-0.26s1.288 1.206 1.405 2.378l-0.1 0.963z"></path>
<path fill="#263238" d="M3.35 19.211c-0.051-0.036-0.093-0.085-0.123-0.143s-0.047-0.122-0.051-0.188v-11.937c0.003-0.066 0.021-0.131 0.051-0.188s0.072-0.106 0.123-0.143l3.893-2.462c0.050-0.034 0.108-0.053 0.168-0.054s0.118 0.016 0.169 0.048c0.051 0.033 0.094 0.080 0.122 0.137s0.043 0.121 0.041 0.186v0.797c0 0.122 0.075 0.171 0.174 0.11l4.871-3.080c0.050-0.034 0.108-0.053 0.167-0.054s0.118 0.015 0.169 0.048c0.051 0.032 0.094 0.080 0.122 0.136s0.043 0.121 0.041 0.186v18.348l-3.59 2.269-6.348-4.016z"></path>
<path fill="#455a64" d="M13.125 2.288c-0.053-0.028-0.111-0.042-0.169-0.041s-0.116 0.017-0.168 0.048l-4.871 3.080c-0.097 0.061-0.174 0.012-0.174-0.11v-0.797c0.002-0.065-0.012-0.129-0.041-0.186s-0.071-0.104-0.122-0.137c-0.051-0.033-0.11-0.049-0.169-0.048s-0.117 0.020-0.168 0.054l-3.893 2.462c-0.051 0.036-0.093 0.084-0.123 0.142l2.233 1.412 7.828-4.952v-0.604c-0.002-0.064-0.018-0.127-0.046-0.183s-0.068-0.104-0.117-0.14z"></path>
<path fill="#37474f" d="M13.115 2.501l-5.197 3.287c-0.097 0.061-0.174 0.012-0.174-0.11v-1.21c0-0.122-0.075-0.171-0.174-0.11l-3.893 2.462c-0.051 0.036-0.093 0.085-0.123 0.143s-0.048 0.122-0.051 0.188v11.528c0.003 0.066 0.021 0.131 0.051 0.188s0.073 0.106 0.124 0.142l6.349 4.016 3.262-2.062v-18.352c0-0.122-0.078-0.17-0.174-0.11z"></path>
<path fill="#263238" d="M3.554 18.863c0.029 0.058 0.072 0.107 0.123 0.142l6.349 4.016 3.262-2.062v-8.252l-9.734 6.156z"></path>
<path fill="#f5f5f5" d="M4.342 21.491l-0.048-0.030c-0.041-0.029-0.074-0.068-0.099-0.114s-0.038-0.097-0.041-0.15v-11.201c0.003-0.053 0.017-0.104 0.041-0.15s0.058-0.085 0.099-0.113l10.485-6.632c0.043-0.024 0.091-0.037 0.139-0.037s0.096 0.013 0.139 0.037l0.048 0.031c0.041 0.029 0.075 0.068 0.099 0.113s0.038 0.097 0.041 0.15v11.198c-0.003 0.053-0.017 0.104-0.041 0.15s-0.058 0.085-0.099 0.114l-10.485 6.634c-0.043 0.024-0.091 0.037-0.139 0.037s-0.096-0.013-0.139-0.037z"></path>
<path fill="#e0e0e0" d="M4.807 10.23l-0.611-0.387c-0.025 0.046-0.039 0.097-0.041 0.151v11.201c0.003 0.053 0.017 0.104 0.041 0.15s0.058 0.085 0.099 0.114l0.048 0.030c0.043 0.024 0.091 0.037 0.139 0.037s0.096-0.013 0.139-0.037l0.186-0.118v-11.14z"></path>
<path fill="#ebebeb" d="M4.482 21.4v-11.201c0.003-0.053 0.017-0.104 0.041-0.15s0.058-0.085 0.098-0.114l10.485-6.632c0.076-0.048 0.14-0.009 0.14 0.088v11.201c-0.003 0.053-0.017 0.104-0.041 0.15s-0.058 0.085-0.099 0.114l-10.485 6.634c-0.077 0.046-0.139 0.007-0.139-0.090z"></path>
<path fill="#fff" d="M5.308 10.327l9.111-5.762c0.096-0.061 0.174-0.012 0.174 0.11v8.636c-0.003 0.066-0.020 0.131-0.051 0.188s-0.072 0.106-0.123 0.143l-9.111 5.761c-0.096 0.061-0.174 0.012-0.174-0.11v-8.636c0.003-0.066 0.021-0.131 0.051-0.188s0.072-0.106 0.123-0.143z"></path>
<path fill="#ffb900" d="M6.814 9.896c0.568-0.359 1.027-0.068 1.027 0.65s-0.46 1.59-1.027 1.949c-0.568 0.359-1.027 0.069-1.027-0.649s0.46-1.591 1.027-1.95z"></path>
<path fill="#ffb900" d="M7.766 12.499c0.035-0.071 0.085-0.132 0.145-0.178s0.13-0.076 0.203-0.087c0.073-0.011 0.147-0.003 0.217 0.024s0.132 0.071 0.184 0.129l1.184 1.35 2.25-6.046c0.033-0.089 0.088-0.165 0.159-0.221s0.155-0.089 0.242-0.096c0.087-0.007 0.174 0.014 0.251 0.059s0.141 0.113 0.185 0.196l1.806 3.427v2.256c-0.003 0.066-0.020 0.131-0.051 0.188s-0.072 0.106-0.123 0.143l-9.11 5.761c-0.096 0.061-0.174 0.012-0.174-0.11v-1.431l2.631-5.363z"></path>
<path fill="#f5f5f5" d="M6.301 22.731l-0.048-0.031c-0.040-0.029-0.074-0.068-0.098-0.114s-0.038-0.097-0.041-0.15v-11.205c0.003-0.053 0.017-0.104 0.041-0.15s0.058-0.085 0.098-0.114l10.486-6.631c0.043-0.024 0.091-0.037 0.139-0.037s0.096 0.013 0.139 0.037l0.048 0.030c0.041 0.029 0.074 0.068 0.098 0.114s0.038 0.097 0.041 0.15v11.201c-0.002 0.053-0.016 0.104-0.040 0.15s-0.058 0.085-0.099 0.113l-10.488 6.636c-0.043 0.024-0.090 0.037-0.138 0.037s-0.095-0.013-0.138-0.037z"></path>
<path fill="#e0e0e0" d="M6.765 11.469l-0.611-0.387c-0.025 0.045-0.039 0.097-0.041 0.15v11.201c0.003 0.053 0.017 0.104 0.041 0.15s0.058 0.085 0.098 0.114l0.048 0.031c0.043 0.024 0.091 0.037 0.139 0.037s0.096-0.013 0.139-0.037l0.187-0.118v-11.14z"></path>
<path fill="#ebebeb" d="M6.439 22.639v-11.201c0.003-0.053 0.017-0.104 0.041-0.15s0.058-0.085 0.098-0.114l10.486-6.632c0.075-0.049 0.139-0.009 0.139 0.088v11.201c-0.002 0.053-0.016 0.104-0.040 0.15s-0.058 0.085-0.099 0.113l-10.486 6.636c-0.076 0.045-0.139 0.005-0.139-0.092z"></path>
<path fill="#fff" d="M7.265 11.568l9.111-5.763c0.096-0.060 0.174-0.011 0.174 0.11v8.635c-0.003 0.066-0.020 0.131-0.051 0.188s-0.072 0.106-0.123 0.143l-9.111 5.763c-0.097 0.060-0.174 0.012-0.174-0.11v-8.635c0.003-0.066 0.021-0.131 0.051-0.188s0.073-0.106 0.123-0.142z"></path>
<path fill="#11b5e4" d="M8.771 11.135c0.567-0.359 1.027-0.068 1.027 0.65s-0.46 1.59-1.027 1.949c-0.567 0.359-1.027 0.068-1.027-0.65s0.46-1.59 1.027-1.949z"></path>
<path fill="#11b5e4" d="M9.723 13.738c0.035-0.071 0.084-0.132 0.145-0.178s0.13-0.076 0.203-0.087c0.073-0.011 0.147-0.003 0.217 0.024s0.132 0.071 0.183 0.129l1.19 1.35 2.249-6.046c0.033-0.089 0.088-0.166 0.159-0.222s0.155-0.090 0.242-0.096c0.087-0.007 0.175 0.014 0.252 0.059s0.141 0.113 0.185 0.196l1.806 3.427v2.255c-0.003 0.066-0.020 0.131-0.051 0.188s-0.072 0.106-0.123 0.143l-9.111 5.763c-0.097 0.060-0.174 0.012-0.174-0.11v-1.431l2.629-5.364z"></path>
<path fill="#f5f5f5" d="M8.256 23.964l-0.048-0.030c-0.040-0.029-0.074-0.068-0.098-0.114s-0.038-0.097-0.041-0.15v-11.201c0.003-0.053 0.017-0.104 0.041-0.15s0.058-0.085 0.099-0.113l10.485-6.632c0.043-0.024 0.091-0.037 0.139-0.037s0.096 0.013 0.139 0.037l0.048 0.031c0.041 0.029 0.075 0.068 0.099 0.113s0.038 0.097 0.041 0.15v11.201c-0.003 0.053-0.017 0.104-0.041 0.15s-0.058 0.085-0.099 0.114l-10.485 6.631c-0.043 0.024-0.091 0.037-0.14 0.037s-0.096-0.013-0.14-0.037z"></path>
<path fill="#e0e0e0" d="M8.722 12.706l-0.609-0.387c-0.025 0.046-0.039 0.097-0.041 0.15v11.201c0.003 0.053 0.017 0.104 0.041 0.15s0.058 0.085 0.098 0.114l0.048 0.030c0.043 0.024 0.091 0.037 0.139 0.037s0.096-0.013 0.139-0.037l0.187-0.118-0.002-11.14z"></path>
<path fill="#ebebeb" d="M8.396 23.876v-11.201c0.003-0.053 0.017-0.104 0.041-0.15s0.058-0.085 0.098-0.114l10.485-6.633c0.075-0.048 0.14-0.009 0.14 0.088v11.202c-0.003 0.053-0.017 0.104-0.041 0.15s-0.058 0.085-0.099 0.114l-10.485 6.631c-0.077 0.049-0.139 0.007-0.139-0.088z"></path>
<path fill="#fff" d="M9.222 12.802l9.111-5.762c0.096-0.061 0.174-0.012 0.174 0.11v8.635c-0.003 0.066-0.020 0.131-0.051 0.188s-0.072 0.106-0.123 0.143l-9.111 5.764c-0.096 0.061-0.174 0.012-0.174-0.11v-8.637c0.003-0.066 0.021-0.13 0.051-0.188s0.072-0.106 0.123-0.142z"></path>
<path fill="#f03e3d" d="M10.728 12.372c0.568-0.359 1.027-0.068 1.027 0.65s-0.46 1.59-1.027 1.949c-0.568 0.359-1.030 0.069-1.030-0.649s0.462-1.591 1.030-1.95z"></path>
<path fill="#f03e3d" d="M11.68 14.975c0.035-0.071 0.085-0.132 0.145-0.178s0.13-0.076 0.203-0.087c0.073-0.011 0.147-0.003 0.217 0.024s0.133 0.071 0.184 0.129l1.186 1.35 2.25-6.046c0.033-0.089 0.088-0.165 0.159-0.222s0.155-0.089 0.242-0.096c0.087-0.007 0.174 0.014 0.252 0.059s0.141 0.113 0.185 0.196l1.806 3.427v2.253c-0.003 0.066-0.021 0.131-0.051 0.188s-0.073 0.106-0.123 0.143l-9.111 5.764c-0.096 0.061-0.174 0.012-0.174-0.11v-1.431l2.632-5.363z"></path>
<path fill="#263238" d="M10.027 23.020l0.978-0.619v1.238l-0.978-0.619z"></path>
<path fill="#263238" d="M11.005 14.37v9.050c0 0.122-0.076 0.17-0.174 0.11l-0.805-0.509-0.328 0.207 1.457 0.921c0.054 0.030 0.113 0.046 0.174 0.046s0.12-0.016 0.174-0.046l10.092-6.379c0.051-0.036 0.093-0.085 0.123-0.143s0.048-0.122 0.051-0.188v-9.463c0.002-0.065-0.012-0.129-0.041-0.186s-0.071-0.104-0.123-0.137c-0.051-0.032-0.11-0.049-0.169-0.048s-0.117 0.020-0.168 0.054l-10.090 6.381c-0.051 0.036-0.093 0.085-0.123 0.142s-0.048 0.122-0.051 0.188z"></path>
<path fill="#455a64" d="M11.661 14.563l10.115-6.395v-0.193c0.002-0.065-0.012-0.129-0.041-0.186s-0.071-0.104-0.123-0.137c-0.051-0.032-0.11-0.049-0.169-0.048s-0.117 0.020-0.168 0.054l-10.097 6.381c-0.052 0.035-0.094 0.084-0.123 0.142l0.605 0.38z"></path>
<path fill="#37474f" d="M21.595 7.865l-10.090 6.381c-0.051 0.036-0.093 0.085-0.123 0.143s-0.048 0.122-0.051 0.188v9.461c0 0.122 0.076 0.171 0.174 0.11l10.090-6.379c0.051-0.036 0.093-0.085 0.123-0.142s0.048-0.122 0.051-0.188v-9.463c0-0.122-0.078-0.171-0.174-0.11z"></path>
<path fill="#fafafa" d="M14.018 20.107c-0.019 0-0.038-0.005-0.055-0.016-0.020-0.014-0.036-0.035-0.047-0.058s-0.015-0.050-0.013-0.076v-4.599c0.003-0.060 0.018-0.119 0.046-0.171s0.066-0.096 0.112-0.129l4.941-3.125c0.019-0.017 0.042-0.026 0.067-0.028s0.049 0.004 0.070 0.018 0.038 0.033 0.049 0.057c0.011 0.024 0.014 0.051 0.011 0.077v4.599c-0.003 0.060-0.018 0.119-0.046 0.171s-0.066 0.096-0.112 0.129l-4.941 3.129c-0.025 0.015-0.053 0.023-0.081 0.022zM19.083 11.989c-0.015 0.001-0.030 0.006-0.043 0.016l-4.941 3.124c-0.035 0.025-0.063 0.059-0.084 0.099s-0.033 0.084-0.036 0.129v4.599c-0.001 0.012-0 0.023 0.004 0.034s0.010 0.021 0.018 0.028c0.010 0.004 0.021 0.005 0.031 0.003s0.020-0.007 0.029-0.014l4.941-3.125c0.035-0.025 0.064-0.059 0.084-0.098s0.033-0.084 0.036-0.129v-4.599c0.001-0.012 0-0.024-0.004-0.034s-0.010-0.021-0.018-0.028c-0.005-0.003-0.011-0.005-0.017-0.005z"></path>
<path fill="#fafafa" d="M14.814 16.146c-0.043 0-0.086-0.011-0.123-0.035-0.047-0.035-0.084-0.083-0.108-0.139s-0.034-0.118-0.028-0.18c0.008-0.159 0.050-0.313 0.123-0.451s0.174-0.255 0.295-0.342c0.044-0.039 0.098-0.063 0.155-0.068s0.113 0.009 0.163 0.041c0.049 0.031 0.088 0.078 0.113 0.135s0.032 0.12 0.023 0.181c-0.008 0.159-0.050 0.313-0.123 0.451s-0.174 0.255-0.296 0.342c-0.059 0.040-0.125 0.062-0.194 0.065zM15.17 15.017c-0.056 0.003-0.111 0.022-0.159 0.055-0.11 0.079-0.202 0.186-0.267 0.311s-0.103 0.266-0.11 0.41c-0.010 0.047-0.006 0.097 0.012 0.141s0.048 0.082 0.086 0.106c0.038 0.024 0.083 0.034 0.127 0.029s0.085-0.026 0.118-0.060c0.11-0.079 0.202-0.186 0.267-0.311s0.103-0.266 0.11-0.41c0.005-0.047-0.001-0.095-0.018-0.139s-0.045-0.081-0.080-0.109c-0.026-0.016-0.056-0.024-0.085-0.023z"></path>
<path fill="#fafafa" d="M13.941 19.761c-0.005-0.001-0.011-0.004-0.015-0.007-0.004-0.002-0.008-0.006-0.012-0.010s-0.006-0.009-0.007-0.014c-0.001-0.005-0.002-0.011-0.002-0.016s0.002-0.011 0.004-0.015l1.463-3.146c0.022-0.048 0.054-0.089 0.093-0.12s0.085-0.053 0.133-0.062c0.048-0.009 0.097-0.005 0.144 0.011s0.089 0.043 0.124 0.081l1.446 1.525c0.004 0.004 0.006 0.008 0.008 0.013s0.003 0.010 0.003 0.016-0.001 0.011-0.003 0.016c-0.002 0.005-0.005 0.009-0.008 0.013s-0.008 0.007-0.012 0.009c-0.005 0.002-0.010 0.003-0.015 0.003s-0.010-0.001-0.015-0.003c-0.005-0.002-0.009-0.005-0.012-0.009l-1.446-1.521c-0.027-0.028-0.059-0.049-0.094-0.060s-0.072-0.015-0.109-0.008c-0.036 0.007-0.071 0.023-0.1 0.046s-0.054 0.055-0.071 0.091l-1.463 3.147c-0.003 0.007-0.009 0.013-0.015 0.017s-0.013 0.006-0.021 0.006z"></path>
<path fill="#fafafa" d="M16.55 17.286c-0.005 0.001-0.010 0.001-0.015 0-0.009-0.004-0.016-0.012-0.020-0.022s-0.004-0.021 0-0.031l1.132-2.868c0.020-0.052 0.052-0.098 0.093-0.132s0.089-0.057 0.14-0.065c0.051-0.008 0.103-0.002 0.152 0.018s0.091 0.053 0.124 0.097l1.030 1.364c0.003 0.004 0.006 0.009 0.007 0.014s0.002 0.011 0.002 0.016c-0 0.005-0.002 0.011-0.004 0.015s-0.005 0.009-0.009 0.012c-0.007 0.006-0.015 0.009-0.024 0.009s-0.017-0.004-0.024-0.010l-1.030-1.364c-0.025-0.033-0.057-0.058-0.093-0.074s-0.075-0.020-0.114-0.014c-0.038 0.006-0.075 0.023-0.106 0.049s-0.055 0.060-0.071 0.099l-1.132 2.867c-0.004 0.008-0.010 0.014-0.017 0.017s-0.015 0.005-0.023 0.004z"></path>
<path fill="#ba68c8" d="M20.256 9.963c-0.233 0-0.39-0.153-0.39-0.38l0.020-1.434c0-0.391 0-0.985 0.399-1.24 0.082-0.057 0.177-0.089 0.275-0.093s0.194 0.022 0.279 0.074c0.085 0.052 0.157 0.128 0.206 0.22s0.075 0.197 0.075 0.304c0 0.115-0.004 0.256-0.010 0.418-0 0.016-0.004 0.032-0.010 0.047s-0.015 0.028-0.026 0.039c-0.011 0.011-0.024 0.020-0.038 0.025s-0.029 0.008-0.044 0.007c-0.015-0.001-0.029-0.005-0.043-0.012s-0.026-0.017-0.036-0.029c-0.010-0.012-0.018-0.026-0.023-0.042s-0.007-0.032-0.007-0.048c0.005-0.156 0.009-0.298 0.009-0.408 0-0.063-0.015-0.126-0.044-0.18s-0.072-0.099-0.123-0.129c-0.051-0.030-0.109-0.044-0.166-0.041s-0.114 0.024-0.161 0.060c-0.264 0.165-0.285 0.579-0.285 1.024l-0.020 1.436c0 0.108 0.088 0.131 0.163 0.131 0.123-0.003 0.24-0.059 0.327-0.155s0.136-0.225 0.137-0.36l-0.008-0.566c0-0.033 0.012-0.064 0.033-0.088s0.050-0.036 0.080-0.036 0.059 0.013 0.080 0.036c0.021 0.023 0.033 0.055 0.033 0.088l0.008 0.567c0.001 0.201-0.072 0.395-0.201 0.538s-0.305 0.224-0.489 0.226z"></path>
<path fill="#455a64" d="M21.956 18.777l-7.876 4.981c-0.041 0.029-0.074 0.068-0.099 0.114s-0.038 0.097-0.041 0.15v0.060c0.003 0.053 0.017 0.105 0.041 0.151s0.058 0.085 0.099 0.114l6.571 4.156c0.043 0.024 0.091 0.037 0.139 0.037s0.096-0.013 0.139-0.037l7.876-4.981c0.041-0.029 0.074-0.068 0.099-0.114s0.038-0.097 0.041-0.15v-0.061c-0.003-0.053-0.017-0.104-0.041-0.15s-0.058-0.085-0.099-0.114l-6.571-4.156c-0.043-0.024-0.091-0.037-0.139-0.037s-0.096 0.013-0.139 0.037z"></path>
<path fill="#263238" d="M13.941 24.022v0.060c0.003 0.053 0.017 0.105 0.041 0.151s0.058 0.085 0.099 0.114l6.571 4.156c0.043 0.025 0.091 0.037 0.139 0.036v-0.774l-6.524-4.125-0.186 0.118c-0.040 0.029-0.074 0.068-0.098 0.113s-0.038 0.097-0.041 0.15z"></path>
<path fill="#37474f" d="M14.080 23.758l7.876-4.981c0.043-0.024 0.091-0.037 0.139-0.037s0.096 0.013 0.139 0.037l6.571 4.156c0.017 0.006 0.032 0.018 0.042 0.034s0.016 0.035 0.016 0.054c0 0.020-0.006 0.039-0.016 0.054s-0.025 0.028-0.042 0.034l-7.876 4.981c-0.043 0.024-0.091 0.037-0.139 0.037s-0.096-0.013-0.139-0.037l-6.571-4.156c-0.017-0.006-0.032-0.018-0.042-0.034s-0.016-0.035-0.016-0.054c0-0.020 0.006-0.039 0.016-0.054s0.025-0.028 0.042-0.034z"></path>
<path fill="#fff" d="M15.058 23.934l5.104 3.225c0.043 0.024 0.091 0.037 0.139 0.037s0.096-0.013 0.139-0.037l6.898-4.362c0.017-0.006 0.032-0.018 0.042-0.034s0.016-0.035 0.016-0.054c0-0.020-0.006-0.039-0.016-0.054s-0.025-0.028-0.042-0.034l-5.104-3.225c-0.043-0.024-0.091-0.036-0.139-0.036s-0.096 0.012-0.139 0.036l-6.897 4.362c-0.017 0.006-0.032 0.018-0.042 0.034s-0.016 0.035-0.016 0.054c0 0.020 0.006 0.039 0.016 0.054s0.025 0.028 0.042 0.034z"></path>
<path fill="#02897a" d="M16.632 23.252c0.36-0.227 0.944-0.227 1.304 0s0.361 0.597 0 0.827c-0.361 0.23-0.944 0.227-1.304 0s-0.36-0.599 0-0.827z"></path>
<path fill="#02897a" d="M27.338 22.623l-1.492-0.944-4.529-0.462c-0.055-0.006-0.111 0.004-0.161 0.029s-0.094 0.063-0.128 0.112c-0.033 0.049-0.054 0.106-0.061 0.166s-0 0.121 0.020 0.177l0.782 2.144-2.491-0.155c-0.049-0.003-0.097 0.006-0.142 0.026s-0.085 0.052-0.118 0.091c-0.032 0.040-0.056 0.087-0.070 0.138s-0.016 0.105-0.007 0.158l0.383 2.53 0.84 0.531c0.043 0.024 0.091 0.037 0.139 0.037s0.096-0.013 0.139-0.037l6.898-4.362c0.018-0.006 0.033-0.018 0.044-0.034s0.017-0.036 0.017-0.056c-0-0.020-0.007-0.040-0.018-0.056s-0.027-0.027-0.045-0.032z"></path>
<path fill="#ebebeb" d="M27.314 16.626v-3.301l3.914-2.475v3.3l-3.914 2.476z"></path>
<path fill="#e6e6e6" d="M27.314 13.325l-4.893-3.094v3.301l4.893 3.094v-3.301z"></path>
<path fill="#f0f0f0" d="M27.314 13.325l4.030-2.549-5.009-3.169-4.030 2.55 5.009 3.168z"></path>
<path fill="#ebebeb" d="M27.314 13.325v0.825l4.030-2.549v-0.826l-4.030 2.549z"></path>
<path fill="#e6e6e6" d="M27.314 14.15l3.914-2.475v0.181l-3.914 2.476v-0.182z"></path>
<path fill="#ebebeb" d="M22.306 10.157l5.009 3.168v0.825l-5.009-3.168v-0.825z"></path>
<path fill="#e0e0e0" opacity="0.5" d="M27.314 14.15l-4.893-3.094v0.182l4.893 3.094v-0.182z"></path>
<path fill="#e0e0e0" d="M28.603 13.827l1.337-0.846c0.057-0.036 0.104-0.007 0.104 0.066v0.866c-0.002 0.040-0.012 0.078-0.030 0.113s-0.043 0.064-0.074 0.086l-1.337 0.847c-0.058 0.036-0.104 0.007-0.104-0.065v-0.868c0.002-0.040 0.012-0.078 0.030-0.113s0.044-0.063 0.074-0.085z"></path>
<path fill="#fff" d="M28.688 13.925l1.166-0.738c0.039-0.024 0.070-0.004 0.070 0.044v0.652c-0.001 0.027-0.008 0.053-0.020 0.076s-0.029 0.043-0.050 0.057l-1.166 0.738c-0.039 0.024-0.069 0-0.069-0.045v-0.652c0.001-0.026 0.008-0.052 0.020-0.075s0.029-0.042 0.049-0.056z"></path>
<path fill="#ebebeb" d="M27.314 12.91v-3.301l3.914-2.476v3.301l-3.914 2.476z"></path>
<path fill="#e6e6e6" d="M27.314 9.609l-4.893-3.094v3.301l4.893 3.094v-3.301z"></path>
<path fill="#f5f5f5" d="M27.314 9.609l4.030-2.55-5.009-3.168-4.030 2.549 5.009 3.169z"></path>
<path fill="#ebebeb" d="M27.314 9.609v0.825l4.030-2.549v-0.827l-4.030 2.55z"></path>
<path fill="#e6e6e6" d="M27.314 10.435l3.914-2.476v0.182l-3.914 2.475v-0.181z"></path>
<path fill="#ebebeb" d="M22.306 6.441l5.009 3.169v0.825l-5.009-3.168v-0.826z"></path>
<path fill="#e0e0e0" opacity="0.5" d="M27.314 10.435l-4.893-3.094v0.181l4.893 3.094v-0.181z"></path>
<path fill="#e0e0e0" d="M28.603 10.111l1.337-0.846c0.057-0.036 0.104-0.007 0.104 0.066v0.866c-0.002 0.040-0.013 0.078-0.031 0.113s-0.043 0.064-0.074 0.086l-1.337 0.845c-0.058 0.036-0.104 0.007-0.104-0.066v-0.866c0.002-0.040 0.012-0.078 0.030-0.113s0.044-0.064 0.074-0.085z"></path>
<path fill="#fff" d="M28.688 10.209l1.166-0.737c0.039-0.024 0.070-0.005 0.070 0.044v0.646c-0.001 0.027-0.009 0.052-0.021 0.075s-0.029 0.043-0.049 0.057l-1.166 0.737c-0.039 0.025-0.069 0.005-0.069-0.044v-0.649c0.001-0.026 0.009-0.051 0.021-0.074s0.029-0.041 0.049-0.055z"></path>
<path fill="#e0e0e0" d="M31.017 10.568l-3.703 2.343-4.682-2.963-0.115 0.074 4.797 3.023 3.818-2.405-0.115-0.073z"></path>
</svg>
