<!-- Generated by IcoMoon.io -->
<svg version="1.1" xmlns="http://www.w3.org/2000/svg" width="35" height="32" viewBox="0 0 35 32">
<path fill="#ebebeb" d="M8.121 28.901c5.729 3.279 15.018 3.279 20.747 0s5.73-8.596 0-11.875-15.018-3.28-20.747 0c-5.729 3.28-5.729 8.596 0 11.875z"></path>
<path fill="#02897a" d="M30.554 20.766l-0.836-0.521c0 0-0.205-1.92-0.069-3.406 0.192-2.090 1.45-4.602 2.951-4.013s-0.689 2.722-1.175 4.494c-0.486 1.771-0.871 3.447-0.871 3.447z"></path>
<path fill="#000" opacity="0.1" d="M30.554 20.766l-0.836-0.521c0 0-0.205-1.92-0.069-3.406 0.192-2.090 1.45-4.602 2.951-4.013s-0.689 2.722-1.175 4.494c-0.486 1.771-0.871 3.447-0.871 3.447z"></path>
<path fill="#fff" d="M30.119 20.53c-0.008 0-0.015-0.003-0.021-0.008s-0.010-0.013-0.011-0.021c-0.284-2.345 0.494-5.888 2.065-7.232 0.003-0.003 0.007-0.005 0.011-0.006s0.008-0.002 0.012-0.001c0.004 0 0.008 0.002 0.012 0.004s0.007 0.005 0.009 0.009 0.008 0.016 0.007 0.025c-0.001 0.009-0.005 0.017-0.012 0.023-1.554 1.33-2.322 4.846-2.041 7.169 0.001 0.009-0.001 0.018-0.006 0.026s-0.013 0.012-0.021 0.013h-0.004z"></path>
<path fill="#02897a" d="M31 21.136l-0.594-0.369c0 0-0.101-1.317 0.501-2.918 0.524-1.389 1.825-2.549 2.48-2.306s0.638 0.741 0.319 1.263c-0.319 0.522-2.26 1.766-2.705 4.33z"></path>
<path fill="#fff" d="M30.632 21.17c-0.004-0-0.008-0.001-0.012-0.003s-0.007-0.005-0.010-0.008-0.005-0.007-0.006-0.012c-0.001-0.004-0.002-0.009-0.002-0.013 0.196-3.279 1.743-4.891 2.672-5.137 0.008-0.002 0.017-0.001 0.025 0.004s0.013 0.012 0.015 0.021c0.002 0.009 0.001 0.018-0.004 0.026s-0.011 0.013-0.020 0.016c-0.979 0.26-2.44 2.006-2.623 5.075-0 0.005-0.001 0.009-0.003 0.013s-0.005 0.008-0.008 0.011c-0.003 0.003-0.007 0.005-0.011 0.007s-0.009 0.002-0.013 0.001z"></path>
<path fill="#02897a" d="M6.484 21.021c0 0 0.111-1.925-0.932-3.245s-2.401-1.315-2.85-1.069-0.751 0.948 0.022 1.451c0.773 0.503 2.418 1.509 2.692 2.407l1.069 0.456z"></path>
<path fill="#000" opacity="0.1" d="M6.484 21.021c0 0 0.111-1.925-0.932-3.245s-2.401-1.315-2.85-1.069-0.751 0.948 0.022 1.451c0.773 0.503 2.418 1.509 2.692 2.407l1.069 0.456z"></path>
<path fill="#fff" d="M5.993 20.539c-0.010-0-0.020-0.004-0.027-0.011s-0.012-0.017-0.013-0.028c-0.215-2.13-2.2-3.31-2.991-3.444-0.005-0.001-0.010-0.003-0.015-0.006s-0.009-0.007-0.012-0.012c-0.003-0.005-0.006-0.010-0.007-0.015s-0.002-0.011-0.001-0.017c0.001-0.006 0.003-0.011 0.005-0.016s0.006-0.009 0.011-0.013c0.004-0.003 0.009-0.006 0.014-0.007s0.011-0.002 0.016-0.001c0.81 0.136 2.84 1.343 3.060 3.521 0.001 0.006 0 0.012-0.001 0.017s-0.004 0.011-0.007 0.015c-0.003 0.004-0.008 0.008-0.012 0.011s-0.010 0.004-0.015 0.005l-0.004 0.001z"></path>
<path fill="#02897a" d="M5.607 20.050c-0.262-0.639-0.557-0.926-1.407-0.773s-0.729 0.129-1.769-0.156c-0.439-0.12-0.932-0.139-1.353 0.064-0.355 0.174-0.621 0.521-0.277 0.891 0.387 0.413 0.964 0.555 1.392 0.919 0.097 0.074 0.174 0.173 0.224 0.289 0.113 0.307-0.113 0.654-0.047 0.976s0.381 0.494 0.678 0.515c0.296 0.021 0.589-0.075 0.884-0.111s0.628 0 0.832 0.235c0.219 0.249 0.224 0.648 0.428 0.913 0.304 0.397 1.053 0.507 1.458 0.26l1.060-0.656c0.7-1.012-0.405-1.815-0.984-2.601-0.281-0.383-0.96-0.381-1.117-0.766z"></path>
<path fill="#fff" d="M7.051 22.805c-0.007 0-0.014-0.002-0.020-0.005s-0.011-0.009-0.014-0.015c-1.209-2.1-4.501-3.163-5.665-3.25-0.011-0.001-0.020-0.006-0.027-0.015s-0.010-0.020-0.010-0.031c0.001-0.011 0.006-0.022 0.014-0.030s0.018-0.012 0.029-0.011c1.18 0.087 4.503 1.165 5.728 3.294 0.005 0.010 0.007 0.022 0.004 0.033s-0.009 0.021-0.018 0.027c-0.007 0.003-0.014 0.005-0.021 0.004z"></path>
<path fill="#fff" d="M3.221 21.815c-0.006 0-0.013-0.001-0.018-0.004s-0.010-0.008-0.014-0.013c-0.006-0.009-0.009-0.021-0.008-0.032s0.007-0.022 0.016-0.029c0.042-0.034 1.046-0.824 2.024-0.84 0.005-0 0.011 0.001 0.015 0.003s0.009 0.005 0.013 0.009 0.007 0.009 0.009 0.014c0.002 0.005 0.003 0.011 0.003 0.016s-0.001 0.011-0.003 0.017-0.005 0.010-0.008 0.014c-0.004 0.004-0.008 0.007-0.013 0.010s-0.010 0.004-0.015 0.004c-0.95 0.015-1.965 0.815-1.975 0.822-0.007 0.006-0.017 0.009-0.026 0.009z"></path>
<path fill="#37474f" d="M6.976 23.543c0.009 0.126 0.045 0.249 0.106 0.357s0.145 0.2 0.245 0.267l9.825 6.083c0.109 0.059 0.229 0.090 0.351 0.090s0.242-0.031 0.351-0.090l13.442-8.323c0.106-0.060 0.195-0.15 0.256-0.26s0.095-0.236 0.095-0.365c0-0.128-0.033-0.254-0.095-0.364s-0.151-0.2-0.256-0.26l-9.824-6.078c-0.109-0.059-0.229-0.090-0.351-0.090s-0.242 0.031-0.351 0.090l-13.443 8.32c-0.1 0.067-0.184 0.158-0.244 0.267s-0.097 0.23-0.106 0.356z"></path>
<path fill="#263238" d="M11.029 20.627l-3.703 2.294c-0.106 0.060-0.195 0.15-0.256 0.26s-0.095 0.236-0.095 0.365c0 0.128 0.033 0.254 0.095 0.364s0.151 0.2 0.256 0.26l9.825 6.083c0.108 0.060 0.229 0.090 0.351 0.087v-9.712h-6.473z"></path>
<path fill="#455a64" d="M6.646 22.933c-0.098-0.071-0.178-0.166-0.235-0.277s-0.089-0.235-0.093-0.361v-12.573c0.007-0.13 0.042-0.257 0.103-0.371s0.146-0.209 0.248-0.281l13.442-8.323c0.102-0.068 0.218-0.106 0.338-0.108s0.238 0.030 0.342 0.095c0.104 0.064 0.189 0.157 0.247 0.27s0.086 0.24 0.082 0.368v12.573c-0.007 0.13-0.042 0.257-0.103 0.371s-0.146 0.209-0.248 0.281l-13.442 8.324c-0.105 0.059-0.221 0.091-0.339 0.093s-0.235-0.026-0.341-0.081z"></path>
<path fill="#263238" d="M7.963 10.307l-1.543-0.955c-0.061 0.113-0.095 0.24-0.098 0.371v12.572c0.004 0.127 0.036 0.25 0.093 0.361s0.138 0.206 0.235 0.277c0.106 0.055 0.223 0.082 0.341 0.080s0.234-0.035 0.338-0.094l1.534-0.949-0.901-11.663z"></path>
<path fill="#37474f" d="M6.976 10.13v12.572c0 0.24 0.157 0.337 0.351 0.217l13.442-8.322c0.102-0.071 0.187-0.168 0.248-0.281s0.096-0.24 0.103-0.37v-12.573c0-0.24-0.157-0.337-0.351-0.217l-13.442 8.323c-0.102 0.071-0.187 0.167-0.248 0.281s-0.096 0.24-0.103 0.371z"></path>
<path fill="#455a64" d="M7.326 23.355l9.825 6.078c0.109 0.059 0.229 0.090 0.351 0.090s0.242-0.031 0.351-0.090l13.442-8.323c0.194-0.12 0.194-0.314 0-0.434l-9.824-6.078c-0.109-0.059-0.229-0.090-0.351-0.090s-0.242 0.031-0.351 0.090l-13.443 8.323c-0.194 0.118-0.194 0.313 0 0.434z"></path>
<path fill="#fff" d="M7.515 10.176l13.066-8.088c0.116-0.072 0.211-0.014 0.211 0.13v10.883c-0.004 0.078-0.025 0.154-0.062 0.222s-0.087 0.126-0.149 0.168l-13.066 8.088c-0.117 0.072-0.211 0.014-0.211-0.13v-10.883c0.004-0.078 0.025-0.155 0.062-0.222s0.088-0.126 0.149-0.168z"></path>
<path fill="#263238" d="M8.466 23.028l12.478-7.728c0.054-0.030 0.114-0.045 0.175-0.045s0.121 0.015 0.175 0.045l0.639 0.395c0.021 0.008 0.040 0.022 0.053 0.042s0.020 0.043 0.020 0.067c0 0.024-0.007 0.047-0.020 0.067s-0.031 0.034-0.053 0.042l-12.48 7.727c-0.054 0.029-0.114 0.045-0.175 0.045s-0.121-0.015-0.175-0.045l-0.636-0.394c-0.021-0.008-0.040-0.022-0.053-0.042s-0.020-0.043-0.020-0.067c0-0.024 0.007-0.047 0.020-0.067s0.031-0.034 0.053-0.042z"></path>
<path fill="#263238" d="M10.112 24.050l12.477-7.728c0.055-0.030 0.115-0.045 0.176-0.045s0.121 0.015 0.176 0.045l3.925 2.431c0.021 0.008 0.040 0.022 0.052 0.042s0.020 0.043 0.020 0.067-0.007 0.047-0.020 0.067c-0.013 0.019-0.031 0.034-0.052 0.042l-12.463 7.712c-0.055 0.030-0.115 0.045-0.176 0.045s-0.121-0.015-0.176-0.045l-3.939-2.42c-0.020-0.008-0.037-0.023-0.050-0.042s-0.019-0.042-0.019-0.065c0-0.023 0.007-0.046 0.019-0.065s0.030-0.034 0.050-0.042z"></path>
<path fill="#455a64" d="M21.296 19.795l0.391-0.242c0.016-0.010 0.015-0.027 0-0.038l-0.452-0.28c-0.010-0.005-0.020-0.008-0.031-0.008s-0.021 0.003-0.031 0.008l-0.39 0.242c-0.017 0.010-0.016 0.027 0 0.038l0.452 0.28c0.010 0.005 0.020 0.008 0.031 0.008s0.021-0.003 0.031-0.008zM20.526 18.84l-0.39 0.242c-0.017 0.010-0.016 0.027 0 0.038l0.452 0.28c0.010 0.005 0.020 0.008 0.031 0.008s0.021-0.003 0.031-0.008l0.391-0.242c0.016-0.010 0.015-0.028 0-0.038l-0.453-0.28c-0.010-0.005-0.020-0.008-0.031-0.008s-0.021 0.003-0.031 0.008zM19.264 19.621l-0.662 0.409c-0.016 0.010-0.015 0.028 0 0.039l0.452 0.28c0.010 0.005 0.020 0.008 0.031 0.008s0.021-0.003 0.031-0.008l0.661-0.409c0.017-0.010 0.015-0.028 0-0.038l-0.452-0.28c-0.010-0.005-0.020-0.008-0.031-0.008s-0.021 0.003-0.031 0.008zM19.955 19.193l-0.39 0.242c-0.017 0.010-0.016 0.028 0 0.038l0.452 0.28c0.010 0.005 0.020 0.008 0.031 0.008s0.022-0.003 0.031-0.008l0.391-0.242c0.016-0.010 0.015-0.027 0-0.038l-0.453-0.286c-0.010-0.005-0.020-0.008-0.031-0.008s-0.022 0.003-0.031 0.008v0.006zM18.422 20.142l-0.39 0.241c-0.017 0.010-0.015 0.028 0 0.039l0.452 0.28c0.010 0.005 0.020 0.008 0.031 0.008s0.021-0.003 0.031-0.008l0.391-0.242c0.016-0.010 0.015-0.028 0-0.038l-0.452-0.28c-0.010-0.005-0.020-0.008-0.031-0.008s-0.021 0.003-0.031 0.008zM17.855 20.495l-0.39 0.242c-0.017 0.010-0.015 0.027 0 0.038l0.452 0.28c0.010 0.005 0.020 0.008 0.031 0.008s0.021-0.003 0.031-0.008l0.391-0.242c0.016-0.010 0.015-0.028 0-0.038l-0.457-0.286c-0.010-0.005-0.020-0.008-0.031-0.008s-0.022 0.003-0.031 0.008l0.004 0.006zM19.632 21.633l0.39-0.242c0.017-0.010 0.015-0.027 0-0.038l-0.452-0.28c-0.009-0.005-0.020-0.008-0.031-0.008s-0.021 0.003-0.031 0.008l-0.391 0.242c-0.016 0.010-0.015 0.027 0 0.038l0.452 0.28c0.009 0.004 0.020 0.006 0.030 0.005s0.020-0.004 0.029-0.009l0.004 0.004zM19.061 21.986l0.391-0.242c0.016-0.010 0.015-0.027 0-0.038l-0.452-0.28c-0.010-0.005-0.020-0.008-0.031-0.008s-0.022 0.003-0.031 0.008l-0.39 0.242c-0.017 0.010-0.015 0.028 0 0.038l0.452 0.28c0.009 0.004 0.019 0.006 0.029 0.005s0.020-0.004 0.028-0.009l0.004 0.004zM18.49 22.34l0.391-0.241c0.016-0.010 0.015-0.028 0-0.039l-0.452-0.28c-0.010-0.005-0.020-0.008-0.031-0.008s-0.021 0.003-0.031 0.008l-0.39 0.242c-0.017 0.010-0.015 0.028 0 0.038l0.451 0.28c0.009 0.004 0.020 0.006 0.030 0.005s0.020-0.004 0.029-0.009l0.004 0.004zM17.923 22.693l0.391-0.241c0.016-0.010 0.015-0.028 0-0.039l-0.452-0.28c-0.010-0.005-0.020-0.008-0.031-0.008s-0.022 0.003-0.031 0.008l-0.39 0.241c-0.017 0.010-0.016 0.028 0 0.039l0.452 0.28c0.018 0.006 0.037 0.005 0.053-0.004l0.008 0.004zM20.734 20.154l0.391-0.242c0.016-0.010 0.015-0.027 0-0.038l-0.452-0.28c-0.010-0.005-0.020-0.008-0.031-0.008s-0.021 0.003-0.031 0.008l-0.39 0.242c-0.017 0.010-0.016 0.028 0 0.038l0.452 0.28c0.009 0.003 0.018 0.004 0.027 0.004s0.018-0.004 0.026-0.008l0.008 0.004zM20.207 21.283l0.871-0.54c0.016-0.010 0.015-0.027 0-0.038l-1.097-0.679c-0.010-0.005-0.020-0.008-0.031-0.008s-0.021 0.003-0.031 0.008l-0.45 0.28c-0.017 0.010-0.015 0.027 0 0.038l0.581 0.36c0.018 0.011 0.019 0.029 0 0.039l-0.367 0.214c-0.016 0.010-0.015 0.027 0 0.038l0.454 0.277c0.009 0.006 0.020 0.010 0.031 0.010s0.022-0.001 0.032-0.006l0.008 0.008zM17.288 20.849l-0.39 0.242c-0.017 0.010-0.016 0.027 0 0.038l0.452 0.28c0.010 0.005 0.020 0.008 0.031 0.008s0.021-0.003 0.031-0.008l0.391-0.242c0.016-0.010 0.015-0.027 0-0.038l-0.452-0.28c-0.010-0.008-0.022-0.012-0.035-0.013s-0.025 0.002-0.036 0.009l0.008 0.004zM16.721 21.202l-0.403 0.242c-0.016 0.010-0.015 0.028 0 0.038l0.452 0.28c0.010 0.005 0.020 0.008 0.031 0.008s0.022-0.003 0.031-0.008l0.391-0.242c0.016-0.010 0.015-0.027 0-0.038l-0.455-0.282c-0.009-0.005-0.019-0.008-0.029-0.008s-0.020 0.002-0.030 0.006l0.012 0.004zM13.853 25.162c0.010 0.005 0.020 0.008 0.031 0.008s0.022-0.003 0.031-0.008l0.391-0.242c0.016-0.010 0.015-0.027 0-0.038l-0.454-0.278c-0.010-0.005-0.020-0.008-0.031-0.008s-0.022 0.003-0.031 0.008l-0.39 0.242c-0.017 0.010-0.016 0.028 0 0.038l0.453 0.278zM12.139 24.026l-0.391 0.242c-0.016 0.010-0.015 0.027 0 0.038l0.452 0.28c0.010 0.005 0.020 0.008 0.031 0.008s0.022-0.003 0.031-0.008l0.391-0.242c0.016-0.010 0.015-0.027 0-0.038l-0.452-0.28c-0.009-0.005-0.020-0.008-0.030-0.008s-0.021 0.003-0.030 0.008h-0.002zM13.058 24.855c0.010 0.005 0.020 0.008 0.031 0.008s0.022-0.003 0.031-0.008l0.39-0.242c0.017-0.010 0.015-0.027 0-0.038l-0.451-0.28c-0.010-0.005-0.020-0.008-0.031-0.008s-0.021 0.003-0.031 0.008l-0.391 0.242c-0.016 0.010-0.015 0.028 0 0.038l0.452 0.28zM14.861 25.376l0.391-0.242c0.016-0.010 0.015-0.027 0-0.038l-0.452-0.28c-0.010-0.005-0.020-0.008-0.031-0.008s-0.022 0.003-0.031 0.008l-0.39 0.242c-0.017 0.010-0.015 0.027 0 0.038l0.451 0.28c0.010 0.006 0.021 0.009 0.032 0.009s0.022-0.003 0.033-0.008l-0.002-0.001zM14.228 25.724c0.010 0.005 0.020 0.008 0.031 0.008s0.022-0.003 0.031-0.008l0.391-0.242c0.016-0.010 0.015-0.027 0-0.038l-0.452-0.28c-0.010-0.005-0.020-0.008-0.031-0.008s-0.021 0.003-0.031 0.008l-0.39 0.242c-0.017 0.010-0.016 0.028 0 0.038l0.451 0.28zM12.71 23.667l-0.39 0.242c-0.017 0.010-0.016 0.027 0 0.038l0.452 0.28c0.010 0.005 0.020 0.008 0.031 0.008s0.022-0.003 0.031-0.008l0.391-0.242c0.016-0.010 0.015-0.028 0-0.038l-0.452-0.28c-0.010-0.004-0.020-0.006-0.031-0.005s-0.021 0.004-0.030 0.010l-0.002-0.005zM15.565 21.9l-0.391 0.241c-0.016 0.010-0.015 0.028 0 0.038l0.452 0.28c0.010 0.005 0.020 0.008 0.031 0.008s0.021-0.003 0.031-0.008l0.39-0.241c0.017-0.010 0.016-0.028 0-0.039l-0.452-0.28c-0.010-0.004-0.020-0.006-0.030-0.005s-0.020 0.004-0.029 0.010l-0.002-0.005zM13.286 23.319l-0.39 0.241c-0.017 0.010-0.016 0.028 0 0.039l0.452 0.28c0.010 0.005 0.020 0.008 0.031 0.008s0.021-0.003 0.031-0.008l0.391-0.242c0.016-0.010 0.015-0.028 0-0.038l-0.452-0.28c-0.010-0.005-0.021-0.008-0.032-0.008s-0.022 0.003-0.031 0.008zM16.141 21.551l-0.394 0.241c-0.016 0.010-0.015 0.028 0 0.038l0.452 0.28c0.010 0.005 0.020 0.008 0.031 0.008s0.022-0.003 0.031-0.008l0.39-0.241c0.017-0.010 0.016-0.028 0-0.039l-0.45-0.276c-0.010-0.006-0.020-0.009-0.031-0.009s-0.022 0.002-0.032 0.007h0.003zM15 22.259l-0.391 0.241c-0.016 0.010-0.015 0.028 0 0.039l0.452 0.28c0.010 0.005 0.020 0.008 0.031 0.008s0.021-0.003 0.031-0.008l0.39-0.241c0.017-0.010 0.015-0.028 0-0.039l-0.451-0.28c-0.010-0.006-0.021-0.009-0.033-0.009s-0.023 0.003-0.033 0.009h0.003zM14.428 22.612l-0.39 0.241c-0.017 0.010-0.015 0.028 0 0.039l0.452 0.28c0.010 0.005 0.020 0.008 0.031 0.008s0.021-0.003 0.031-0.008l0.39-0.241c0.016-0.010 0.015-0.028 0-0.039l-0.452-0.28c-0.010-0.006-0.021-0.009-0.033-0.009s-0.023 0.003-0.033 0.009h0.003zM13.853 22.966l-0.39 0.241c-0.017 0.010-0.015 0.028 0 0.039l0.451 0.28c0.010 0.005 0.020 0.008 0.031 0.008s0.022-0.003 0.031-0.008l0.391-0.241c0.016-0.010 0.015-0.028 0-0.039l-0.452-0.28c-0.010-0.005-0.020-0.008-0.031-0.008s-0.021 0.003-0.031 0.008zM16.772 23.4l0.39-0.241c0.017-0.010 0.016-0.028 0-0.039l-0.453-0.286c-0.010-0.005-0.020-0.008-0.031-0.008s-0.021 0.003-0.031 0.008l-0.391 0.241c-0.016 0.010-0.015 0.028 0 0.039l0.452 0.28c0.010 0.006 0.021 0.009 0.032 0.010s0.022-0.002 0.033-0.008l-0.001 0.004zM21.789 18.058l-0.391 0.242c-0.016 0.010-0.015 0.027 0 0.038l0.452 0.28c0.010 0.005 0.020 0.008 0.031 0.008s0.022-0.003 0.031-0.008l0.39-0.242c0.017-0.010 0.016-0.027 0-0.038l-0.452-0.28c-0.010-0.005-0.020-0.008-0.031-0.008s-0.021 0.003-0.031 0.008zM21.097 18.486l-0.39 0.242c-0.017 0.010-0.015 0.027 0 0.038l0.451 0.28c0.010 0.005 0.020 0.008 0.031 0.008s0.021-0.003 0.031-0.008l0.391-0.242c0.016-0.010 0.015-0.028 0-0.038l-0.452-0.28c-0.009-0.006-0.020-0.010-0.031-0.011s-0.022 0.001-0.032 0.006l0.001 0.004zM22.36 17.705l-0.39 0.242c-0.017 0.010-0.016 0.027 0 0.038l0.452 0.28c0.010 0.005 0.020 0.008 0.031 0.008s0.022-0.003 0.031-0.008l0.391-0.242c0.016-0.010 0.015-0.028 0-0.038l-0.452-0.28c-0.010-0.007-0.021-0.011-0.033-0.012s-0.024 0.002-0.034 0.007l0.004 0.004zM19.404 20.973l0.391-0.242c0.016-0.010 0.015-0.028 0-0.038l-0.452-0.28c-0.010-0.005-0.020-0.008-0.031-0.008s-0.022 0.003-0.031 0.008l-0.39 0.242c-0.017 0.010-0.016 0.027 0 0.038l0.452 0.28c0.010 0.004 0.020 0.006 0.031 0.006s0.021-0.004 0.030-0.010l0.001 0.004zM22.993 17.353c-0.010-0.005-0.020-0.008-0.031-0.008s-0.022 0.003-0.031 0.008l-0.39 0.242c-0.017 0.010-0.016 0.027 0 0.038l0.452 0.28c0.010 0.005 0.020 0.008 0.031 0.008s0.021-0.003 0.031-0.008l0.391-0.242c0.016-0.010 0.015-0.028 0-0.038l-0.453-0.28zM17.344 23.042l0.391-0.241c0.016-0.010 0.015-0.028 0-0.039l-0.454-0.275c-0.010-0.005-0.020-0.008-0.031-0.008s-0.021 0.003-0.031 0.008l-0.39 0.241c-0.017 0.010-0.016 0.028 0 0.039l0.452 0.28c0.010 0.005 0.021 0.007 0.032 0.006s0.022-0.004 0.032-0.010zM24.346 18.708l0.391-0.242c0.016-0.010 0.015-0.027 0-0.038l-0.454-0.282c-0.010-0.005-0.020-0.008-0.031-0.008s-0.022 0.003-0.031 0.008l-0.39 0.242c-0.017 0.010-0.016 0.028 0 0.038l0.452 0.28c0.010 0.006 0.021 0.009 0.032 0.010s0.022-0.002 0.032-0.007zM23.131 18.662l0.391-0.242c0.016-0.010 0.015-0.027 0-0.038l-0.452-0.28c-0.010-0.005-0.020-0.008-0.031-0.008s-0.021 0.003-0.031 0.008l-0.39 0.242c-0.017 0.010-0.016 0.027 0 0.038l0.452 0.28c0.009 0.006 0.019 0.009 0.029 0.010s0.021-0.001 0.030-0.005l0.002-0.004zM23.639 17.748c-0.010-0.005-0.020-0.008-0.031-0.008s-0.022 0.003-0.031 0.008l-0.39 0.242c-0.017 0.010-0.016 0.027 0 0.038l0.452 0.28c0.010 0.005 0.020 0.008 0.031 0.008s0.022-0.003 0.031-0.008l0.391-0.242c0.016-0.010 0.015-0.028 0-0.038l-0.453-0.28zM23.76 17.673l1.096 0.679c0.010 0.005 0.020 0.008 0.031 0.008s0.022-0.003 0.031-0.008l0.391-0.242c0.016-0.010 0.015-0.027 0-0.038l-1.097-0.679c-0.010-0.005-0.020-0.008-0.031-0.008s-0.022 0.003-0.031 0.008l-0.39 0.242c-0.021 0.010-0.019 0.027-0.002 0.038h0.002zM22.435 18.455l-0.391 0.242c-0.016 0.010-0.015 0.028 0 0.038l0.452 0.28c0.010 0.005 0.020 0.008 0.031 0.008s0.022-0.003 0.031-0.008l0.39-0.242c0.017-0.010 0.016-0.027 0-0.038l-0.452-0.28c-0.009-0.005-0.019-0.008-0.030-0.008s-0.021 0.002-0.030 0.007l-0.002 0.002zM18.138 21.115l-0.393 0.242c-0.016 0.010-0.015 0.028 0 0.038l0.452 0.28c0.010 0.005 0.020 0.008 0.031 0.008s0.021-0.003 0.031-0.008l0.39-0.242c0.017-0.010 0.016-0.027 0-0.038l-0.452-0.28c-0.009-0.005-0.020-0.008-0.031-0.009s-0.021 0.002-0.031 0.007l0.002 0.002zM23.715 19.061c0.010 0.005 0.020 0.008 0.031 0.008s0.021-0.003 0.031-0.008l0.391-0.242c0.016-0.010 0.015-0.027 0-0.038l-0.452-0.28c-0.010-0.005-0.020-0.008-0.031-0.008s-0.021 0.003-0.031 0.008l-0.39 0.242c-0.017 0.010-0.016 0.028 0 0.038l0.451 0.28zM18.708 20.762l-0.39 0.242c-0.017 0.010-0.016 0.027 0 0.038l0.452 0.28c0.010 0.005 0.020 0.008 0.031 0.008s0.021-0.003 0.031-0.008l0.391-0.242c0.016-0.010 0.015-0.027 0-0.038l-0.452-0.28c-0.010-0.006-0.021-0.009-0.032-0.010s-0.023 0.002-0.033 0.008l0.002 0.002zM14.428 24.81c0.010 0.005 0.020 0.008 0.031 0.008s0.021-0.003 0.031-0.008l0.391-0.242c0.016-0.010 0.015-0.027 0-0.038l-0.452-0.28c-0.010-0.005-0.020-0.008-0.031-0.008s-0.022 0.003-0.031 0.008l-0.39 0.242c-0.017 0.010-0.015 0.027 0 0.038l0.451 0.28zM13.57 23.942l-0.391 0.242c-0.016 0.010-0.015 0.027 0 0.038l0.452 0.28c0.010 0.005 0.020 0.008 0.031 0.008s0.021-0.003 0.031-0.008l0.39-0.242c0.017-0.010 0.016-0.027 0-0.038l-0.452-0.28c-0.010-0.006-0.021-0.008-0.032-0.008s-0.022 0.003-0.032 0.008h0.002zM15.062 24.457l0.39-0.242c0.016-0.010 0.015-0.028 0-0.038l-0.452-0.28c-0.010-0.005-0.020-0.008-0.031-0.008s-0.022 0.003-0.031 0.008l-0.394 0.24c-0.016 0.010-0.015 0.027 0 0.038l0.452 0.28c0.010 0.006 0.021 0.010 0.032 0.010s0.023-0.002 0.033-0.008h0.002zM15.633 24.103l0.39-0.242c0.017-0.010 0.015-0.028 0-0.038l-0.451-0.28c-0.010-0.005-0.020-0.008-0.031-0.008s-0.022 0.003-0.031 0.008l-0.391 0.241c-0.016 0.010-0.015 0.028 0 0.039l0.452 0.28c0.010 0.005 0.021 0.008 0.032 0.008s0.022-0.003 0.032-0.008h-0.002zM16.2 23.749l0.39-0.241c0.017-0.010 0.016-0.028 0-0.038l-0.452-0.28c-0.010-0.005-0.020-0.008-0.031-0.008s-0.021 0.003-0.031 0.008l-0.391 0.241c-0.016 0.010-0.015 0.028 0 0.039l0.452 0.28c0.010 0.006 0.021 0.009 0.032 0.009s0.022-0.003 0.032-0.009h-0.002zM14.136 23.588l-0.391 0.242c-0.016 0.010-0.015 0.027 0 0.038l0.452 0.28c0.010 0.005 0.020 0.008 0.031 0.008s0.021-0.003 0.031-0.008l0.391-0.242c0.016-0.010 0.015-0.028 0-0.038l-0.452-0.28c-0.009-0.005-0.020-0.008-0.030-0.008s-0.021 0.003-0.030 0.008h-0.002zM14.707 23.235l-0.39 0.241c-0.017 0.010-0.016 0.028 0 0.039l0.452 0.28c0.010 0.005 0.020 0.008 0.031 0.008s0.021-0.003 0.031-0.008l0.398-0.241c0.016-0.010 0.015-0.028 0-0.038l-0.452-0.28c-0.010-0.007-0.022-0.010-0.034-0.011s-0.024 0.003-0.034 0.009h-0.002zM16.992 21.821l-0.385 0.241c-0.016 0.010-0.015 0.028 0 0.039l0.452 0.28c0.010 0.005 0.020 0.008 0.031 0.008s0.021-0.003 0.031-0.008l0.39-0.241c0.017-0.010 0.015-0.028 0-0.039l-0.451-0.28c-0.010-0.006-0.021-0.009-0.033-0.009s-0.023 0.003-0.033 0.009h-0.002zM16.42 22.175l-0.39 0.241c-0.016 0.010-0.015 0.028 0 0.039l0.452 0.28c0.010 0.005 0.020 0.008 0.031 0.008s0.021-0.003 0.031-0.008l0.39-0.241c0.017-0.010 0.015-0.028 0-0.039l-0.452-0.28c-0.009-0.005-0.020-0.007-0.030-0.007s-0.021 0.002-0.030 0.007h-0.002zM17.563 21.467l-0.39 0.242c-0.016 0.010-0.015 0.028 0 0.038l0.452 0.28c0.010 0.005 0.020 0.008 0.031 0.008s0.021-0.003 0.031-0.008l0.39-0.242c0.017-0.010 0.016-0.027 0-0.038l-0.452-0.28c-0.009-0.005-0.020-0.008-0.030-0.008s-0.021 0.002-0.030 0.007h-0.002zM15.278 22.882l-0.39 0.241c-0.017 0.010-0.016 0.028 0 0.039l0.452 0.28c0.010 0.005 0.020 0.008 0.031 0.008s0.021-0.003 0.031-0.008l0.391-0.242c0.016-0.010 0.015-0.028 0-0.038l-0.452-0.28c-0.010-0.005-0.020-0.007-0.030-0.007s-0.021 0.003-0.030 0.008h-0.002zM15.849 22.528l-0.39 0.241c-0.017 0.010-0.015 0.028 0 0.039l0.452 0.28c0.009 0.005 0.020 0.008 0.031 0.008s0.021-0.003 0.031-0.008l0.391-0.241c0.016-0.010 0.015-0.028 0-0.039l-0.452-0.28c-0.009-0.005-0.020-0.007-0.030-0.007s-0.021 0.002-0.030 0.007h-0.002zM15.433 25.024l0.39-0.242c0.016-0.010 0.015-0.028 0-0.038l-0.452-0.28c-0.010-0.005-0.020-0.008-0.031-0.008s-0.022 0.003-0.031 0.008l-0.39 0.242c-0.017 0.010-0.015 0.027 0 0.038l0.452 0.28c0.010 0.006 0.021 0.009 0.032 0.009s0.022-0.003 0.032-0.009h-0.002zM12.084 24.657l-0.452-0.28c-0.010-0.005-0.020-0.008-0.031-0.008s-0.021 0.003-0.031 0.008l-0.389 0.244c-0.016 0.010-0.015 0.027 0 0.038l0.452 0.28c0.010 0.005 0.020 0.008 0.031 0.008s0.022-0.003 0.031-0.008l0.39-0.242c0.018-0.008 0.017-0.025-0.001-0.040zM12.94 24.927l-0.452-0.28c-0.010-0.005-0.020-0.008-0.031-0.008s-0.021 0.003-0.031 0.008l-0.598 0.374c-0.016 0.010-0.015 0.028 0 0.038l0.452 0.28c0.010 0.005 0.020 0.008 0.031 0.008s0.021-0.003 0.031-0.008l0.601-0.372c0.019-0.009 0.014-0.026-0.004-0.037v-0.004zM11.391 24.116l-0.454-0.276c-0.010-0.005-0.020-0.008-0.031-0.008s-0.022 0.003-0.031 0.008l-0.479 0.296c-0.016 0.010-0.015 0.028 0 0.039l0.452 0.28c0.010 0.005 0.020 0.008 0.031 0.008s0.021-0.003 0.031-0.008l0.48-0.297c0.019-0.010 0.019-0.027 0.001-0.038v-0.003zM11.76 23.888c0.010 0.005 0.020 0.008 0.031 0.008s0.021-0.003 0.031-0.008l0.39-0.242c0.017-0.010 0.016-0.027 0-0.038l-0.452-0.28c-0.010-0.005-0.020-0.008-0.031-0.008s-0.021 0.003-0.031 0.008l-0.391 0.242c-0.016 0.010-0.015 0.028 0 0.038l0.453 0.28zM13.736 25.233l-0.449-0.276c-0.010-0.005-0.020-0.008-0.031-0.008s-0.021 0.003-0.031 0.008l-0.752 0.465c-0.016 0.010-0.015 0.028 0 0.038l0.452 0.28c0.010 0.005 0.020 0.008 0.031 0.008s0.021-0.003 0.031-0.008l0.751-0.465c0.016-0.010 0.015-0.028-0.002-0.039v-0.003zM14.111 25.8l-0.452-0.274c-0.010-0.005-0.020-0.008-0.031-0.008s-0.021 0.003-0.031 0.008l-0.481 0.298c-0.016 0.010-0.015 0.028 0 0.039l0.452 0.28c0.010 0.005 0.020 0.008 0.031 0.008s0.021-0.003 0.031-0.008l0.481-0.298c0.019-0.012 0.018-0.029 0-0.041v-0.004zM16.005 21.26c0.010 0.005 0.020 0.008 0.031 0.008s0.022-0.003 0.031-0.008l0.39-0.241c0.017-0.010 0.015-0.028 0-0.039l-0.452-0.28c-0.010-0.005-0.020-0.008-0.031-0.008s-0.021 0.003-0.031 0.008l-0.39 0.246c-0.016 0.010-0.015 0.028 0 0.038l0.452 0.276zM14.863 21.967c0.010 0.005 0.020 0.008 0.031 0.008s0.021-0.003 0.031-0.008l0.391-0.241c0.016-0.010 0.015-0.028 0-0.039l-0.452-0.28c-0.010-0.005-0.020-0.008-0.031-0.008s-0.021 0.003-0.031 0.008l-0.39 0.241c-0.017 0.010-0.015 0.028 0 0.039l0.451 0.28zM12.331 23.538c0.010 0.005 0.020 0.008 0.031 0.008s0.021-0.003 0.031-0.008l0.39-0.242c0.017-0.010 0.016-0.027 0-0.038l-0.452-0.28c-0.010-0.005-0.020-0.008-0.031-0.008s-0.021 0.003-0.031 0.008l-0.391 0.242c-0.016 0.010-0.015 0.027 0 0.038l0.453 0.28zM15.434 21.618c0.010 0.005 0.020 0.008 0.031 0.008s0.021-0.003 0.031-0.008l0.391-0.241c0.016-0.010 0.015-0.028 0-0.039l-0.452-0.28c-0.010-0.005-0.020-0.008-0.031-0.008s-0.021 0.003-0.031 0.008l-0.39 0.241c-0.017 0.010-0.015 0.028 0 0.039l0.452 0.28zM14.292 22.325c0.010 0.005 0.020 0.008 0.031 0.008s0.022-0.003 0.031-0.008l0.391-0.241c0.016-0.010 0.015-0.028 0-0.039l-0.452-0.28c-0.010-0.005-0.020-0.008-0.031-0.008s-0.021 0.003-0.031 0.008l-0.39 0.241c-0.017 0.010-0.016 0.028 0 0.039l0.451 0.28zM14.424 25.85c-0.010-0.005-0.020-0.008-0.031-0.008s-0.021 0.003-0.031 0.008l-0.601 0.371c-0.016 0.010-0.015 0.028 0 0.039l0.452 0.28c0.010 0.005 0.020 0.008 0.031 0.008s0.022-0.003 0.031-0.008l0.601-0.372c0.017-0.010 0.015-0.028 0-0.039l-0.452-0.279zM13.472 22.834c0.010 0.005 0.020 0.008 0.031 0.008s0.021-0.003 0.031-0.008l0.391-0.242c0.016-0.010 0.015-0.028 0-0.038l-0.452-0.28c-0.010-0.005-0.020-0.008-0.031-0.008s-0.021 0.003-0.031 0.008l-0.39 0.242c-0.017 0.010-0.016 0.027 0 0.038l0.451 0.28zM12.902 23.181c0.010 0.005 0.020 0.008 0.031 0.008s0.022-0.003 0.031-0.008l0.391-0.242c0.016-0.010 0.015-0.028 0-0.038l-0.452-0.28c-0.010-0.005-0.020-0.008-0.031-0.008s-0.021 0.003-0.031 0.008l-0.39 0.242c-0.017 0.010-0.016 0.027 0 0.038l0.451 0.28zM25.003 19.3c-0.010-0.005-0.020-0.008-0.031-0.008s-0.021 0.003-0.031 0.008l-0.965 0.594c-0.016 0.010-0.015 0.028 0 0.039l0.452 0.28c0.010 0.005 0.020 0.008 0.031 0.008s0.021-0.003 0.031-0.008l0.967-0.591c0.017-0.010 0.016-0.028 0-0.039l-0.454-0.282zM23.74 20.081c-0.010-0.005-0.020-0.008-0.031-0.008s-0.021 0.003-0.031 0.008l-0.39 0.241c-0.017 0.010-0.016 0.028 0 0.039l0.452 0.28c0.010 0.005 0.020 0.008 0.031 0.008s0.021-0.003 0.031-0.008l0.391-0.241c0.016-0.010 0.015-0.028 0-0.039l-0.453-0.28zM16.006 24.67l0.39-0.242c0.017-0.010 0.015-0.028 0-0.038l-0.451-0.28c-0.010-0.005-0.020-0.008-0.031-0.008s-0.021 0.003-0.031 0.008l-0.391 0.241c-0.016 0.010-0.015 0.028 0 0.039l0.452 0.28c0.010 0.005 0.020 0.008 0.031 0.008s0.021-0.002 0.031-0.007zM22.599 20.788c-0.010-0.005-0.020-0.008-0.031-0.008s-0.021 0.003-0.031 0.008l-0.391 0.241c-0.016 0.010-0.015 0.028 0 0.039l0.452 0.28c0.010 0.005 0.020 0.008 0.031 0.008s0.021-0.003 0.031-0.008l0.39-0.241c0.017-0.010 0.016-0.028 0-0.039l-0.451-0.28zM25.574 18.946c-0.010-0.005-0.020-0.008-0.031-0.008s-0.021 0.003-0.031 0.008l-0.39 0.241c-0.017 0.010-0.016 0.028 0 0.038l0.452 0.28c0.010 0.005 0.020 0.008 0.031 0.008s0.021-0.003 0.031-0.008l0.391-0.241c0.016-0.010 0.015-0.028 0-0.039l-0.453-0.279zM26.596 18.873l-1.097-0.679c-0.010-0.005-0.020-0.008-0.031-0.008s-0.021 0.003-0.031 0.008l-0.39 0.242c-0.017 0.010-0.016 0.028 0 0.038l1.097 0.679c0.010 0.005 0.020 0.008 0.031 0.008s0.022-0.003 0.031-0.008l0.391-0.242c0.018-0.010 0.017-0.027-0.001-0.038zM20.465 22.11c-0.010-0.005-0.020-0.008-0.031-0.008s-0.022 0.003-0.031 0.008l-0.481 0.298c-0.016 0.010-0.015 0.028 0 0.038l0.452 0.28c0.010 0.005 0.020 0.008 0.031 0.008s0.022-0.003 0.031-0.008l0.481-0.298c0.016-0.010 0.015-0.028 0-0.038l-0.452-0.28zM21.907 21.216c-0.010-0.005-0.020-0.008-0.031-0.008s-0.021 0.003-0.031 0.008l-0.601 0.372c-0.016 0.010-0.015 0.028 0 0.038l0.452 0.28c0.010 0.005 0.020 0.008 0.031 0.008s0.021-0.003 0.031-0.008l0.601-0.372c0.016-0.010 0.015-0.028 0-0.039l-0.452-0.28zM19.142 22.928c-0.010-0.005-0.020-0.008-0.031-0.008s-0.021 0.003-0.031 0.008l-3.216 1.99c-0.016 0.010-0.015 0.028 0 0.039l0.452 0.28c0.010 0.005 0.020 0.008 0.031 0.008s0.021-0.003 0.031-0.008l3.216-1.991c0.016-0.010 0.015-0.028 0-0.039l-0.452-0.279zM15.746 25.031c-0.010-0.005-0.020-0.008-0.031-0.008s-0.021 0.003-0.031 0.008l-0.48 0.298c-0.017 0.010-0.016 0.028 0 0.038l0.452 0.28c0.010 0.005 0.020 0.008 0.031 0.008s0.022-0.003 0.031-0.008l0.483-0.294c0.016-0.010 0.015-0.028 0-0.038l-0.455-0.283zM19.803 22.519c-0.010-0.005-0.020-0.008-0.031-0.008s-0.021 0.003-0.031 0.008l-0.48 0.298c-0.017 0.010-0.016 0.028 0 0.039l0.452 0.28c0.010 0.005 0.020 0.008 0.031 0.008s0.021-0.003 0.031-0.008l0.481-0.298c0.017-0.010 0.015-0.027 0-0.038l-0.453-0.28zM15.085 25.439c-0.010-0.005-0.020-0.008-0.031-0.008s-0.021 0.003-0.031 0.008l-0.481 0.298c-0.016 0.010-0.015 0.028 0 0.039l0.452 0.28c0.010 0.005 0.020 0.008 0.031 0.008s0.021-0.003 0.031-0.008l0.48-0.297c0.017-0.010 0.016-0.028 0-0.039l-0.451-0.28zM21.126 21.699c-0.010-0.005-0.020-0.008-0.031-0.008s-0.021 0.003-0.031 0.008l-0.48 0.297c-0.017 0.010-0.016 0.028 0 0.039l0.452 0.28c0.010 0.005 0.020 0.008 0.031 0.008s0.021-0.003 0.031-0.008l0.481-0.298c0.017-0.010 0.015-0.028 0-0.039l-0.453-0.279zM23.169 20.434c-0.010-0.005-0.020-0.008-0.031-0.008s-0.021 0.003-0.031 0.008l-0.39 0.241c-0.017 0.010-0.016 0.028 0 0.039l0.452 0.28c0.010 0.005 0.020 0.008 0.031 0.008s0.021-0.003 0.031-0.008l0.391-0.241c0.016-0.010 0.015-0.028 0-0.039l-0.453-0.28zM24.421 19.46l0.39-0.241c0.017-0.010 0.016-0.028 0-0.039l-0.452-0.28c-0.010-0.005-0.020-0.008-0.031-0.008s-0.021 0.003-0.031 0.008l-0.391 0.242c-0.016 0.010-0.015 0.028 0 0.038l0.452 0.28c0.010 0.005 0.021 0.008 0.032 0.008s0.022-0.003 0.032-0.008v-0.001zM21.87 19.447l0.391-0.242c0.016-0.010 0.015-0.028 0-0.038l-0.452-0.28c-0.010-0.005-0.020-0.008-0.031-0.008s-0.021 0.003-0.031 0.008l-0.39 0.242c-0.017 0.010-0.015 0.027 0 0.038l0.451 0.28c0.010 0.005 0.020 0.008 0.031 0.008s0.022-0.003 0.031-0.008zM20.574 21.847l1.142-0.707c0.016-0.010 0.015-0.028 0-0.039l-0.452-0.28c-0.010-0.005-0.020-0.008-0.031-0.008s-0.021 0.003-0.031 0.008l-1.142 0.708c-0.016 0.010-0.015 0.027 0 0.038l0.452 0.28c0.010 0.005 0.021 0.007 0.032 0.006s0.021-0.004 0.031-0.010v0.004zM23.787 19.817c0.010 0.005 0.020 0.008 0.031 0.008s0.021-0.003 0.031-0.008l0.39-0.241c0.017-0.010 0.016-0.028 0-0.039l-0.452-0.28c-0.010-0.005-0.020-0.008-0.031-0.008s-0.022 0.003-0.031 0.008l-0.391 0.241c-0.016 0.010-0.015 0.028 0 0.039l0.453 0.28zM23.204 19.419l0.39-0.241c0.017-0.010 0.016-0.028 0-0.039l-0.452-0.28c-0.010-0.005-0.020-0.008-0.031-0.008s-0.021 0.003-0.031 0.008l-0.391 0.242c-0.016 0.010-0.015 0.028 0 0.038l0.452 0.28c0.010 0.004 0.021 0.006 0.032 0.005s0.022-0.005 0.031-0.011v0.004zM20.003 22.197l0.39-0.242c0.017-0.010 0.015-0.027 0-0.038l-0.452-0.28c-0.010-0.005-0.020-0.008-0.031-0.008s-0.021 0.003-0.031 0.008l-0.393 0.241c-0.017 0.010-0.015 0.027 0 0.038l0.452 0.28c0.011 0.006 0.022 0.010 0.035 0.010s0.024-0.004 0.034-0.011l-0.004 0.002zM22.525 20.596c0.010 0.005 0.020 0.008 0.031 0.008s0.021-0.003 0.031-0.008l0.391-0.241c0.016-0.010 0.015-0.028 0-0.039l-0.452-0.28c-0.010-0.005-0.020-0.008-0.031-0.008s-0.021 0.003-0.031 0.008l-0.39 0.242c-0.017 0.010-0.016 0.028 0 0.038l0.451 0.28zM17.148 23.963l0.39-0.241c0.017-0.010 0.016-0.028 0-0.039l-0.452-0.28c-0.010-0.005-0.020-0.008-0.031-0.008s-0.021 0.003-0.031 0.008l-0.391 0.241c-0.016 0.010-0.015 0.028 0 0.039l0.452 0.28c0.010 0.005 0.021 0.008 0.032 0.008s0.022-0.003 0.032-0.008zM17.719 23.609l0.391-0.241c0.016-0.010 0.015-0.028 0-0.039l-0.451-0.28c-0.010-0.005-0.020-0.008-0.031-0.008s-0.022 0.003-0.031 0.008l-0.391 0.241c-0.016 0.010-0.015 0.028 0 0.039l0.452 0.28c0.010 0.005 0.020 0.008 0.031 0.008s0.021-0.003 0.031-0.008zM16.577 24.316l0.39-0.241c0.017-0.010 0.016-0.028 0-0.039l-0.451-0.28c-0.010-0.005-0.020-0.008-0.031-0.008s-0.021 0.003-0.031 0.008l-0.391 0.241c-0.016 0.010-0.015 0.028 0 0.039l0.452 0.28c0.010 0.005 0.020 0.008 0.031 0.008s0.021-0.003 0.031-0.008zM18.861 22.902l0.391-0.241c0.016-0.010 0.015-0.028 0-0.039l-0.452-0.28c-0.010-0.005-0.020-0.008-0.031-0.008s-0.021 0.003-0.031 0.008l-0.39 0.242c-0.017 0.010-0.016 0.028 0 0.038l0.452 0.28c0.010 0.005 0.020 0.008 0.031 0.008s0.021-0.003 0.031-0.008zM18.294 23.256l0.391-0.241c0.016-0.010 0.015-0.028 0-0.039l-0.459-0.28c-0.010-0.005-0.020-0.008-0.031-0.008s-0.022 0.003-0.031 0.008l-0.39 0.241c-0.017 0.010-0.016 0.028 0 0.038l0.452 0.28c0.010 0.006 0.021 0.009 0.032 0.009s0.022-0.003 0.032-0.009h0.004zM19.436 22.549l0.391-0.242c0.016-0.010 0.015-0.027 0-0.038l-0.452-0.28c-0.010-0.005-0.020-0.008-0.031-0.008s-0.021 0.003-0.031 0.008l-0.397 0.237c-0.017 0.010-0.015 0.028 0 0.038l0.451 0.28c0.010 0.007 0.020 0.011 0.032 0.011s0.023-0.001 0.033-0.006h0.004zM22.048 17.319c0.010 0.005 0.020 0.008 0.031 0.008s0.022-0.003 0.031-0.008l0.391-0.242c0.016-0.010 0.015-0.027 0-0.038l-0.12-0.075c-0.010-0.005-0.020-0.008-0.031-0.008s-0.021 0.003-0.031 0.008l-0.391 0.241c-0.016 0.010-0.015 0.028 0 0.039l0.12 0.075zM19.239 19.264c0.010 0.005 0.020 0.008 0.031 0.008s0.021-0.003 0.031-0.008l0.39-0.241c0.017-0.010 0.016-0.028 0-0.039l-0.452-0.28c-0.010-0.005-0.020-0.008-0.031-0.008s-0.021 0.003-0.031 0.008l-0.391 0.241c-0.016 0.010-0.015 0.028 0 0.039l0.453 0.28zM20.381 18.557c0.010 0.005 0.020 0.008 0.031 0.008s0.021-0.003 0.031-0.008l0.391-0.241c0.016-0.010 0.015-0.028 0-0.039l-0.452-0.28c-0.010-0.005-0.020-0.008-0.031-0.008s-0.021 0.003-0.031 0.008l-0.394 0.241c-0.017 0.010-0.016 0.028 0 0.039l0.454 0.28zM18.542 19.696c0.010 0.005 0.020 0.008 0.031 0.008s0.021-0.003 0.031-0.008l0.39-0.242c0.017-0.010 0.016-0.028 0-0.038l-0.452-0.28c-0.010-0.005-0.020-0.008-0.031-0.008s-0.021 0.003-0.031 0.008l-0.391 0.241c-0.016 0.010-0.015 0.028 0 0.039l0.453 0.28zM19.81 18.914c0.010 0.005 0.020 0.008 0.031 0.008s0.021-0.003 0.031-0.008l0.391-0.241c0.016-0.010 0.015-0.028 0-0.039l-0.452-0.28c-0.010-0.005-0.020-0.008-0.031-0.008s-0.021 0.003-0.031 0.008l-0.39 0.241c-0.017 0.010-0.016 0.028 0 0.039l0.451 0.28zM17.396 20.403c0.010 0.005 0.020 0.008 0.031 0.008s0.022-0.003 0.031-0.008l0.39-0.242c0.017-0.010 0.015-0.028 0-0.038l-0.451-0.28c-0.010-0.005-0.020-0.008-0.031-0.008s-0.021 0.003-0.031 0.008l-0.391 0.242c-0.016 0.010-0.015 0.027 0 0.038l0.452 0.28zM17.967 20.049c0.010 0.005 0.020 0.008 0.031 0.008s0.021-0.003 0.031-0.008l0.39-0.242c0.017-0.010 0.016-0.028 0-0.038l-0.451-0.28c-0.010-0.005-0.020-0.008-0.031-0.008s-0.021 0.003-0.031 0.008l-0.391 0.242c-0.016 0.010-0.015 0.027 0 0.038l0.452 0.28zM20.902 18.027c0.010 0.005 0.020 0.008 0.031 0.008s0.021-0.003 0.031-0.008l0.391-0.241c0.016-0.010 0.015-0.028 0-0.039l-0.121-0.075c-0.010-0.005-0.020-0.008-0.031-0.008s-0.021 0.003-0.031 0.008l-0.39 0.241c-0.017 0.010-0.015 0.028 0 0.039l0.12 0.075zM22.616 16.966c0.009 0.005 0.020 0.008 0.031 0.008s0.021-0.003 0.031-0.008l0.391-0.242c0.016-0.010 0.015-0.027 0-0.038l-0.12-0.075c-0.010-0.005-0.020-0.008-0.031-0.008s-0.022 0.003-0.031 0.008l-0.391 0.241c-0.016 0.010-0.015 0.028 0 0.039l0.121 0.075zM23.564 17.554c0.010 0.005 0.020 0.008 0.031 0.008s0.021-0.003 0.031-0.008l0.391-0.242c0.016-0.010 0.015-0.028 0-0.038l-0.452-0.28c-0.010-0.005-0.020-0.008-0.031-0.008s-0.021 0.003-0.031 0.008l-0.39 0.241c-0.017 0.010-0.015 0.028 0 0.039l0.451 0.28zM24.991 19.107l0.391-0.242c0.016-0.010 0.015-0.027 0-0.038l-0.452-0.28c-0.010-0.005-0.020-0.008-0.031-0.008s-0.021 0.003-0.031 0.008l-0.39 0.242c-0.017 0.010-0.016 0.028 0 0.038l0.452 0.28c0.010 0.005 0.020 0.008 0.031 0.008s0.021-0.003 0.031-0.008zM21.473 17.673c0.010 0.005 0.020 0.008 0.031 0.008s0.021-0.003 0.031-0.008l0.391-0.241c0.016-0.010 0.015-0.028 0-0.039l-0.121-0.075c-0.010-0.005-0.020-0.008-0.031-0.008s-0.021 0.003-0.031 0.008l-0.39 0.241c-0.016 0.010-0.015 0.028 0 0.039l0.12 0.075zM16.825 20.756c0.010 0.005 0.020 0.008 0.031 0.008s0.021-0.003 0.031-0.008l0.39-0.242c0.016-0.010 0.015-0.027 0-0.038l-0.452-0.28c-0.010-0.005-0.020-0.008-0.031-0.008s-0.021 0.003-0.031 0.008l-0.39 0.242c-0.016 0.010-0.015 0.027 0 0.038l0.452 0.28z"></path>
<path fill="#263238" d="M19.146 24.562l4.276-2.648 2.632 1.629-4.276 2.648-2.631-1.629z"></path>
<path fill="#f5f5f5" d="M9.642 11.221l12.743-7.889c0.249-0.155 0.453-0.028 0.453 0.28v10.582c-0.004 0.078-0.025 0.154-0.062 0.222s-0.087 0.126-0.149 0.168l-13.066 8.089c-0.116 0.071-0.21 0.013-0.21-0.13v-10.783c0.006-0.108 0.035-0.214 0.086-0.308s0.121-0.174 0.206-0.233z"></path>
<path fill="#f03e3d" d="M22.842 3.866v-0.254c0-0.308-0.204-0.434-0.453-0.28l-12.747 7.889c-0.085 0.060-0.155 0.139-0.206 0.233s-0.080 0.199-0.086 0.308v0.454l13.491-8.35z"></path>
<path fill="#fff" d="M20.94 4.444c-0.046 0.032-0.083 0.075-0.111 0.125s-0.043 0.107-0.046 0.165c0 0.107 0.070 0.15 0.156 0.096 0.045-0.032 0.083-0.074 0.11-0.125s0.043-0.107 0.045-0.165c0-0.107-0.070-0.15-0.155-0.097z"></path>
<path fill="#fff" d="M21.559 4.061c-0.045 0.032-0.083 0.075-0.11 0.125s-0.043 0.107-0.045 0.165c0 0.107 0.070 0.149 0.156 0.096 0.046-0.032 0.083-0.075 0.111-0.125s0.043-0.107 0.046-0.165c0-0.107-0.070-0.15-0.156-0.096z"></path>
<path fill="#fff" d="M22.178 3.677c-0.045 0.032-0.083 0.075-0.11 0.125s-0.043 0.107-0.046 0.165c0 0.107 0.070 0.15 0.156 0.096 0.045-0.032 0.083-0.074 0.11-0.125s0.043-0.107 0.046-0.165c0-0.107-0.070-0.15-0.156-0.097z"></path>
<path fill="#37474f" d="M12.497 17.397l-0.496-0.307-1.214 2.255 0.496 0.307 1.214-2.255z"></path>
<path fill="#263238" d="M12.498 17.396l-0.248-0.153-1.214 2.255 0.248 0.153 1.214-2.255z"></path>
<path fill="#11b5e4" d="M9.456 23.749c-0.226 0.421-1.296-0.247-1.071-0.663l2.79-4.666c0.008-0.013 0.019-0.022 0.033-0.025s0.028-0.001 0.040 0.006l0.56 0.347c0.012 0.007 0.021 0.019 0.025 0.034s0.002 0.030-0.004 0.043l-2.373 4.923z"></path>
<path fill="#000" opacity="0.1" d="M9.456 23.749l2.373-4.923c0.006-0.013 0.008-0.029 0.004-0.043s-0.013-0.026-0.025-0.034l-0.255-0.158-2.72 5.185c0.248 0.131 0.521 0.163 0.623-0.027z"></path>
<path fill="#11b5e4" d="M17.659 12.766c0-0.036 0-0.070-0.005-0.105s0-0.069-0.007-0.102c-0.007-0.034 0-0.045-0.006-0.068-0.006-0.059-0.014-0.117-0.023-0.174-0.004-0.025-0.008-0.051-0.013-0.076s-0.009-0.048-0.014-0.071c-0.014-0.064-0.028-0.127-0.045-0.187-0.009-0.029-0.017-0.057-0.026-0.087-0.002-0.004-0.003-0.009-0.004-0.013-0.010-0.028-0.019-0.055-0.028-0.081s-0.023-0.061-0.036-0.087c-0.013-0.026-0.018-0.043-0.028-0.063-0.006-0.016-0.013-0.031-0.021-0.045-0.008-0.018-0.017-0.036-0.027-0.054s-0.004-0.009-0.007-0.012c-0.002-0.004-0.017-0.031-0.026-0.047s-0.012-0.020-0.018-0.030c-0.041-0.070-0.088-0.137-0.139-0.199l-0.026-0.031-0.022-0.024c-0.009-0.010-0.019-0.020-0.028-0.030-0.025-0.029-0.052-0.056-0.081-0.081-0.014-0.013-0.028-0.025-0.043-0.036l-0.045-0.035c-0.023-0.018-0.047-0.035-0.072-0.050l-0.019-0.013h-0.004l-1.154-0.715c-0.22-0.132-0.469-0.199-0.721-0.195-0.376 0-0.8 0.132-1.249 0.41-1.543 0.955-2.795 3.28-2.795 5.193 0 0.955 0.311 1.624 0.814 1.938h0.005l1.148 0.709h0.005l0.014 0.008c0.022 0.014 0.044 0.026 0.066 0.037 0.028 0.015 0.056 0.028 0.081 0.040s0.051 0.022 0.077 0.030l0.041 0.013c0.014 0.006 0.029 0.011 0.044 0.014 0.015 0.005 0.030 0.009 0.045 0.012 0.011 0.003 0.022 0.006 0.033 0.008 0.019 0.004 0.040 0.009 0.061 0.011 0.005 0.001 0.009 0.001 0.014 0 0.024 0.005 0.049 0.008 0.073 0.010 0.416 0.047 0.9-0.079 1.419-0.399 1.544-0.955 2.796-3.281 2.796-5.193-0.004-0.040-0.004-0.085-0.004-0.13zM15.786 11.414c0.061 0.238 0.090 0.483 0.088 0.729 0 1.686-1.151 3.821-2.51 4.666-0.199 0.127-0.413 0.222-0.637 0.284-0.060-0.238-0.090-0.484-0.088-0.73 0-1.686 1.151-3.821 2.51-4.666 0.198-0.126 0.412-0.222 0.635-0.283h0.002z"></path>
<path fill="#000" opacity="0.1" d="M12.846 18.28l-1.115-0.689c-0.503-0.315-0.814-0.986-0.814-1.937 0-0.853 0.249-1.787 0.662-2.645l1.148 0.709c-0.413 0.858-0.662 1.792-0.662 2.645 0 0.934 0.296 1.595 0.781 1.918z"></path>
<path fill="#fff" opacity="0.4" d="M17.659 12.766c0-0.036 0-0.070-0.005-0.105s0-0.069-0.007-0.102 0-0.045-0.006-0.068c-0.006-0.059-0.014-0.117-0.023-0.174-0.004-0.025-0.008-0.051-0.013-0.076s-0.009-0.048-0.014-0.071c-0.014-0.064-0.028-0.127-0.045-0.187-0.009-0.029-0.017-0.057-0.026-0.087-0.002-0.004-0.003-0.009-0.004-0.013-0.010-0.028-0.019-0.055-0.028-0.081s-0.023-0.061-0.036-0.087c-0.013-0.026-0.018-0.043-0.028-0.063-0.006-0.016-0.013-0.031-0.021-0.045-0.008-0.018-0.017-0.036-0.027-0.054s-0.004-0.009-0.007-0.012c-0.002-0.003-0.017-0.031-0.026-0.047s-0.012-0.020-0.018-0.030c-0.041-0.070-0.088-0.137-0.139-0.199l-0.026-0.031-0.022-0.024c-0.009-0.010-0.019-0.020-0.028-0.030-0.025-0.029-0.052-0.056-0.081-0.081-0.014-0.013-0.028-0.025-0.043-0.036l-0.045-0.035c-0.023-0.018-0.047-0.035-0.072-0.050-0.508-0.331-1.215-0.292-2.001 0.194-1.544 0.955-2.796 3.281-2.796 5.193 0 0.968 0.324 1.645 0.838 1.952 0.022 0.014 0.044 0.026 0.066 0.037 0.028 0.015 0.056 0.028 0.081 0.040s0.051 0.022 0.077 0.030l0.041 0.013c0.014 0.006 0.029 0.011 0.045 0.014 0.015 0.005 0.030 0.009 0.045 0.012 0.011 0.003 0.022 0.006 0.033 0.008 0.019 0.004 0.040 0.009 0.061 0.011 0.005 0.001 0.009 0.001 0.014 0 0.024 0.005 0.049 0.008 0.073 0.010 0.416 0.047 0.9-0.079 1.419-0.399 1.544-0.955 2.796-3.281 2.796-5.193-0.002-0.043-0.002-0.089-0.002-0.134zM14.582 17.568c-0.347 0.214-0.68 0.327-0.965 0.327-0.535 0-0.781-0.392-0.891-0.802-0.060-0.238-0.090-0.484-0.088-0.73 0-1.686 1.151-3.821 2.51-4.666 0.199-0.126 0.413-0.222 0.637-0.283 0.106-0.028 0.215-0.043 0.324-0.044 0.885 0 0.98 1.072 0.98 1.533 0.003 1.683-1.147 3.823-2.507 4.666z"></path>
<path fill="#000" opacity="0.1" d="M17.092 12.902c0 1.686-1.15 3.821-2.51 4.666-0.347 0.214-0.68 0.327-0.965 0.327-0.535 0-0.781-0.392-0.891-0.802 0.224-0.062 0.439-0.157 0.637-0.284 1.362-0.843 2.51-2.98 2.51-4.666 0.002-0.246-0.028-0.492-0.088-0.729 0.106-0.028 0.215-0.043 0.324-0.044 0.887 0.003 0.983 1.072 0.983 1.533z"></path>
<path fill="#fff" opacity="0.7" d="M16.606 12.608c0 1.686-1.15 3.821-2.51 4.666-0.347 0.215-0.68 0.327-0.965 0.327-0.057 0-0.113-0.005-0.169-0.015-0.109-0.145-0.189-0.313-0.234-0.493-0.060-0.238-0.090-0.484-0.088-0.73 0-1.686 1.151-3.821 2.51-4.666 0.199-0.126 0.413-0.222 0.637-0.283 0.106-0.028 0.215-0.043 0.324-0.044 0.057-0 0.114 0.005 0.17 0.015 0.28 0.353 0.326 0.92 0.326 1.223z"></path>
<path fill="#e6e6e6" d="M18.563 10.851v1.922c0 0.144 0.095 0.202 0.211 0.13l11.75-7.274c0.061-0.043 0.112-0.101 0.149-0.168s0.058-0.144 0.062-0.222v-1.925c0-0.144-0.095-0.202-0.21-0.13l-11.75 7.274c-0.061 0.043-0.113 0.101-0.149 0.17s-0.058 0.145-0.061 0.224z"></path>
<path fill="#ba68c8" d="M18.774 10.458l2.092-1.295v2.443l-2.092 1.295c-0.116 0.072-0.211 0.014-0.211-0.13v-1.92c0.004-0.079 0.025-0.155 0.061-0.224s0.088-0.126 0.149-0.17z"></path>
<path fill="#fff" d="M20.174 10.229c-0.132-0.082-0.299-0.069-0.47 0.037-0.162 0.112-0.297 0.263-0.394 0.442s-0.152 0.38-0.161 0.587c-0.006 0.134 0.034 0.265 0.111 0.371l-0.225 0.413c-0.015 0.030-0.018 0.064-0.010 0.096s0.028 0.060 0.054 0.077c0.019 0.011 0.039 0.017 0.061 0.017s0.042-0.006 0.061-0.017c0.018-0.011 0.034-0.028 0.045-0.048l0.223-0.413c0.024 0.005 0.048 0.007 0.073 0.008 0.099-0.002 0.197-0.032 0.282-0.087 0.162-0.112 0.297-0.264 0.393-0.443s0.151-0.38 0.161-0.586c0.002-0.211-0.070-0.373-0.203-0.455zM19.704 11.488c-0.028 0.033-0.066 0.054-0.108 0.061s-0.084-0.002-0.12-0.024-0.064-0.057-0.080-0.099c-0.015-0.042-0.017-0.088-0.005-0.131 0.009-0.161 0.053-0.317 0.129-0.456s0.179-0.258 0.305-0.347c0.049-0.033 0.104-0.052 0.162-0.055 0.024-0.001 0.047 0.005 0.068 0.017 0.031 0.028 0.054 0.064 0.068 0.104s0.019 0.084 0.013 0.126c-0.009 0.161-0.053 0.317-0.128 0.456s-0.179 0.258-0.304 0.347z"></path>
</svg>
